<mxfile host="app.diagrams.net" modified="2023-05-08T06:07:51.046Z" agent="Mozilla/5.0 (Macintosh; Intel Mac OS X 10_15_7) AppleWebKit/537.36 (KHTML, like Gecko) Chrome/112.0.0.0 Safari/537.36" etag="qW8Dt1vxx4ln5iKS5P5P" version="21.2.4" type="github">
  <diagram name="第 1 页" id="ErNgB3BemKn7QN2s1Z6i">
    <mxGraphModel dx="954" dy="648" grid="0" gridSize="10" guides="1" tooltips="1" connect="1" arrows="1" fold="1" page="1" pageScale="1" pageWidth="1169" pageHeight="827" math="0" shadow="0">
      <root>
        <mxCell id="0" />
        <mxCell id="1" parent="0" />
      </root>
    </mxGraphModel>
  </diagram>
</mxfile>
